# xmcd
#
# Track frame offsets: 
#        150
#        16487
#        30541
#        46270
#        64975
#        84303
#        98336
#        116380
#        133160
#        146760
#
# Disc length: 2152 seconds
#
# Revision: 1
# Processed by: cddbd v1.5.2PL0 Copyright (c) Steve Scherf et al.
# Submitted via: ExactAudioCopy v0.95a4
#
DISCID=7d08660a
DTITLE=Kara Grainger - Grand And Green River
DYEAR=2008
DGENRE=Soul
TTITLE0=What You Wanted
TTITLE1=On My Way
TTITLE2=Cannot Be Denied
TTITLE3=Dreamed I Was The Devil
TTITLE4=I'm Going To Live The Life I Sing About In My Song
TTITLE5=Sky Is Falling
TTITLE6=Holding On
TTITLE7=Bring Me Back
TTITLE8=Secret Soul
TTITLE9=Stuck In Love
EXTD=
EXTT0=
EXTT1=
EXTT2=
EXTT3=
EXTT4=
EXTT5=
EXTT6=
EXTT7=
EXTT8=
EXTT9=
PLAYORDER=
